<svg viewBox="14 6 92 124" xmlns="http://www.w3.org/2000/svg" role="img" aria-label="מנורת המקדש">
  <defs>
    <linearGradient id="gold" x1="0" y1="0" x2="0" y2="1">
      <stop offset="0" stop-color="#FDECA6"/>
      <stop offset="0.35" stop-color="#F2C84B"/>
      <stop offset="0.7" stop-color="#D99A1C"/>
      <stop offset="1" stop-color="#A56A0E"/>
    </linearGradient>
    <linearGradient id="flame" x1="0" y1="0" x2="0" y2="1">
      <stop offset="0" stop-color="#FFF3B0"/>
      <stop offset="0.5" stop-color="#FFC24B"/>
      <stop offset="1" stop-color="#F07C1E"/>
    </linearGradient>
  </defs>

  <g fill="none" stroke="url(#gold)" stroke-width="6" stroke-linecap="round" stroke-linejoin="round">
    <path d="M60 30 L60 104"/>
    <path d="M60 80 C65.52 80 70 75.52 70 70 L70 30"/>
    <path d="M60 80 C54.48 80 50 75.52 50 70 L50 30"/>
    <path d="M60 90 C71.05 90 80 81.05 80 70 L80 30"/>
    <path d="M60 90 C48.95 90 40 81.05 40 70 L40 30"/>
    <path d="M60 100 C76.57 100 90 86.57 90 70 L90 30"/>
    <path d="M60 100 C43.43 100 30 86.57 30 70 L30 30"/>
  </g>

  <g fill="url(#gold)">
    <ellipse cx="30" cy="29" rx="5" ry="2.6"/>
    <ellipse cx="40" cy="29" rx="5" ry="2.6"/>
    <ellipse cx="50" cy="29" rx="5" ry="2.6"/>
    <ellipse cx="60" cy="29" rx="5" ry="2.6"/>
    <ellipse cx="70" cy="29" rx="5" ry="2.6"/>
    <ellipse cx="80" cy="29" rx="5" ry="2.6"/>
    <ellipse cx="90" cy="29" rx="5" ry="2.6"/>
  </g>

  <g fill="url(#flame)">
    <path d="M30 27 C26.6 25 27.5 20 30 16.5 C32.5 20 33.4 25 30 27 Z"/>
    <path d="M40 27 C36.6 25 37.5 20 40 16.5 C42.5 20 43.4 25 40 27 Z"/>
    <path d="M50 27 C46.6 25 47.5 20 50 16.5 C52.5 20 53.4 25 50 27 Z"/>
    <path d="M60 27 C56.6 25 57.5 20 60 16.5 C62.5 20 63.4 25 60 27 Z"/>
    <path d="M70 27 C66.6 25 67.5 20 70 16.5 C72.5 20 73.4 25 70 27 Z"/>
    <path d="M80 27 C76.6 25 77.5 20 80 16.5 C82.5 20 83.4 25 80 27 Z"/>
    <path d="M90 27 C86.6 25 87.5 20 90 16.5 C92.5 20 93.4 25 90 27 Z"/>
  </g>

  <g fill="url(#gold)">
    <rect x="52" y="102" width="16" height="5" rx="2"/>
    <path d="M50 108 L70 108 L74 120 L46 120 Z"/>
    <rect x="42" y="120" width="36" height="7" rx="3"/>
  </g>
</svg>
